<mxfile host="app.diagrams.net" modified="2024-06-12T19:49:08.395Z" agent="Mozilla/5.0 (X11; Linux x86_64) AppleWebKit/537.36 (KHTML, like Gecko) Chrome/125.0.0.0 Safari/537.36" version="24.5.4" etag="fdcRQlmyM-u8nb2xZR0a" type="github">
  <diagram name="PÃ¡gina-1" id="HakbmXK093JTE3UjvH9v">
    <mxGraphModel>
      <root>
        <mxCell id="0" />
        <mxCell id="1" parent="0" />
      </root>
    </mxGraphModel>
  </diagram>
</mxfile>
